<?xml version="1.0" encoding="UTF-8"?>
<svg id="Layer_2" data-name="Layer 2" xmlns="http://www.w3.org/2000/svg" viewBox="0 0 2261.63 764.82">
  <defs>
    <style>
      .cls-1 {
        letter-spacing: 0em;
      }

      .cls-2 {
        font-size: 437.2px;
      }

      .cls-2, .cls-3 {
        font-family: Eklektyk-Stencil, Eklektyk;
      }

      .cls-3 {
        font-size: 320.88px;
      }

      .cls-4 {
        fill: #fff;
      }

      .cls-5 {
        letter-spacing: 0em;
      }

      .cls-6 {
        letter-spacing: 0em;
      }

      .cls-7 {
        font-family: Inter18pt-Light, 'Inter 18pt';
        font-size: 229.22px;
        font-weight: 300;
      }

      .cls-8 {
        letter-spacing: 0em;
      }
    </style>
  </defs>
  <g id="Layer_1_copy" data-name="Layer 1 copy">
    <g>
      <path class="cls-4" d="M36.52,154.33v480.99c0,18.37-3.63,35.65-10.87,51.81-7.26,16.16-15.8,29.62-25.65,40.4h144.34v-350.76c12.74,27.88,26.08,53.86,39.99,77.95,13.92,24.07,161.58,62.13,172.88,88.43,11.3,26.29,18.7,45.9,26.24,77.27,7.53,31.37,11.3,68.28,11.3,110.74h88.69c0-36.76-3.63-66.07-10.87-87.93-7.25-21.86-16.67-40.88-28.26-57.04-11.6-16.16-24.5-32.17-38.69-48-14.21-15.85-161.59-39.44-176.08-63.51,6.37-9.51,16.09-25.04,29.13-46.58,13.04-21.55,27.83-45.95,44.34-73.2,16.52-27.25,33.91-55.93,52.17-86.03,18.26-30.11,35.79-58.62,52.6-85.55,16.81-26.94,31.87-51.18,45.22-72.72,13.33-21.55,23.48-37.4,30.43-47.53-18.56-20.27-37.1-30.42-55.65-30.42s-37.98,9.83-56.52,29.47c-18.56,19.64-37.97,45.3-58.26,77-20.3,31.68-42.04,67.97-65.21,108.84-23.19,40.88-48.69,82.23-76.52,124.05-9.87-15.21-16.67-29.8-20.44-43.73-3.77-13.94-5.95-26.94-6.52-38.97V62.13H0c9.85,10.77,18.39,24.24,25.65,40.4,7.24,16.16,10.87,33.42,10.87,51.81Z"/>
      <path class="cls-4" d="M930.39,154.33v480.99c0,18.37,3.63,35.65,10.87,51.81,7.26,16.16,15.8,29.62,25.65,40.4h-144.34v-350.76c-12.74,27.88-26.08,53.86-39.99,77.95-13.92,24.07-161.58,62.13-172.88,88.43-11.3,26.29-18.7,45.9-26.24,77.27-7.53,31.37-11.3,68.28-11.3,110.74h-88.69c0-36.76,3.63-66.07,10.87-87.93,7.25-21.86,16.67-40.88,28.26-57.04,11.6-16.16,24.5-32.17,38.69-48,14.21-15.85,161.59-39.44,176.08-63.51-6.37-9.51-16.09-25.04-29.13-46.58-13.04-21.55-27.83-45.95-44.34-73.2-16.52-27.25-33.91-55.93-52.17-86.03-18.26-30.11-35.79-58.62-52.6-85.55-16.81-26.94-31.87-51.18-45.22-72.72-13.33-21.55-23.48-37.4-30.43-47.53,18.56-20.27,37.1-30.42,55.65-30.42,19.13,0,37.98,9.83,56.52,29.47,18.56,19.64,37.97,45.3,58.26,77,20.3,31.68,42.04,67.97,65.21,108.84,23.19,40.88,48.69,82.23,76.52,124.05,9.87-15.21,16.67-29.8,20.44-43.73,3.77-13.94,5.95-26.94,6.52-38.97V62.13h144.34c-9.85,10.77-18.39,24.24-25.65,40.4-7.24,16.16-10.87,33.42-10.87,51.81Z"/>
    </g>
    <text class="cls-4" transform="translate(1057.4399 282.372)"><tspan class="cls-7" x="0" y="0">HOUSE OF</tspan><tspan class="cls-3" x="1151.57" y="0"> </tspan><tspan class="cls-2"><tspan class="cls-8" x="0" y="391.07">K</tspan><tspan class="cls-6" x="249.63" y="391.07">A</tspan><tspan class="cls-5" x="488.78" y="391.07">L</tspan><tspan class="cls-8" x="664.53" y="391.07">A</tspan><tspan class="cls-1" x="909.35" y="391.07">A</tspan></tspan></text>
  </g>
</svg>